#!OML:ASF X:\für Bonn\!DataBase\2005_08_10_Bjorn_Final\c3d\bjorn.ASF
:FULLY-SPECIFIED
:DEGREES
32
root -2.73906 18.9887 11.0397 -175.708 23.8827 181.935
lowerback 5.39385 4.19329 -8.71805
upperback 11.5306 7.99805 -5.22455
thorax 9.11116 4.2532 -0.46986
lowerneck -11.4293 1.79968 6.06932
upperneck -5.15341 2.18871 -4.37273
head 0.437107 1.1826 -2.36114
rclavicle 2.94201e-014 -8.26944e-014
rhumerus 10.1966 21.3983 -91.5812
rradius 93.5917
rwrist 34.1097
rhand -45.2644 11.9039
rfingers 7.12502
rthumb -18.038 -17.2797
lclavicle 2.94201e-014 -8.26944e-014
lhumerus -2.4266 -39.5281 92.3772
lradius 64.8145
lwrist 59.072
lhand -51.7147 12.6369
lfingers 7.12502
lthumb -24.2339 41.1255
rfemur 523.262 -176.287 -528.497
rtibia 42.0282
rfoot -18.9783 12.8901
rtoes -23.9503
lfemur 340.735 4.47016 345.597
ltibia 36.756
lfoot -14.7015 6.41135
ltoes -20.0052
33
root -2.7381 18.9817 11.079 -176.031 23.9491 181.843
lowerback 5.24551 4.23417 -8.57911
upperback 11.4565 8.04616 -5.24807
thorax 9.12536 4.28259 -0.556825
lowerneck -11.3766 1.83888 6.15606
upperneck -4.65372 2.1974 -4.31926
head 0.591344 1.1699 -2.35882
rclavicle -7.95139e-016 -6.83819e-014
rhumerus 11.4511 21.446 -91.1916
rradius 93.9626
rwrist 34.5861
rhand -45.4669 11.8075
rfingers 7.12502
rthumb -18.2329 -17.358
lclavicle -7.95139e-016 -6.83819e-014
lhumerus -1.81221 -40.0644 92.1415
lradius 66.1521
lwrist 57.6254
lhand -51.6428 12.1054
lfingers 7.12502
lthumb -24.1651 40.6032
rfemur 524.48 -176.105 -528.721
rtibia 42.1911
rfoot -19.2727 11.8364
rtoes -24.7402
lfemur 340.898 4.47121 345.574
ltibia 36.8236
lfoot -14.6376 6.4623
ltoes -20.1245
34
root -2.7343 18.9747 11.1171 -176.359 24.0476 181.752
lowerback 5.02357 4.27881 -8.4531
upperback 11.4129 8.11294 -5.2508
thorax 9.21302 4.31578 -0.604951
lowerneck -11.4284 1.8791 6.23879
upperneck -4.08736 2.20403 -4.29439
head 0.785948 1.15648 -2.36573
rclavicle -5.64548e-014 -3.81667e-014
rhumerus 12.703 21.4963 -90.7479
rradius 94.3582
rwrist 34.9077
rhand -45.6504 11.8145
rfingers 7.12502
rthumb -18.4094 -17.3344
lclavicle -5.64548e-014 -3.81667e-014
lhumerus -1.00832 -40.5742 91.8386
lradius 67.4021
lwrist 56.1529
lhand -51.3434 11.4522
lfingers 7.12502
lthumb -23.878 39.9879
rfemur 525.711 -176.015 -528.956
rtibia 42.3079
rfoot -19.4557 10.9153
rtoes -24.7133
lfemur 341.088 4.50076 345.565
ltibia 36.8876
lfoot -14.5676 6.50097
ltoes -20.1532
35
root -2.72925 18.9682 11.1539 -176.704 24.1441 181.642
lowerback 4.76025 4.31128 -8.35091
upperback 11.3751 8.16461 -5.23495
thorax 9.32659 4.33587 -0.61606
lowerneck -11.441 1.89715 6.2531
upperneck -3.54626 2.19258 -4.22238
head 0.963129 1.13706 -2.34575
rclavicle 1.26427e-013 6.36111e-015
rhumerus 13.9309 21.5916 -90.3061
rradius 94.7544
rwrist 35.0208
rhand -45.7264 11.9222
rfingers 7.12502
rthumb -18.4825 -17.2198
lclavicle 1.26427e-013 6.36111e-015
lhumerus -0.0926629 -41.0817 91.4627
lradius 68.6144
lwrist 54.7828
lhand -50.981 10.4719
lfingers 7.12502
lthumb -23.5304 39.0526
rfemur 526.95 -175.937 -529.216
rtibia 42.386
rfoot -19.5546 10.0652
rtoes -24.157
lfemur 341.298 4.54193 345.539
ltibia 36.9429
lfoot -14.5442 6.4859
ltoes -20.0857
36
root -2.72369 18.9605 11.1906 -177.043 24.225 181.553
lowerback 4.48363 4.3561 -8.1557
upperback 11.3288 8.23449 -5.2407
thorax 9.45154 4.37414 -0.697555
lowerneck -11.449 1.89776 6.28194
upperneck -2.9926 2.15682 -4.08699
head 1.1417 1.10781 -2.30901
rclavicle -6.12257e-014 -4.77083e-015
rhumerus 15.0552 21.5892 -89.9321
rradius 95.1523
rwrist 35.0516
rhand -45.8334 12.1088
rfingers 7.12502
rthumb -18.5855 -17.0234
lclavicle -6.12257e-014 -4.77083e-015
lhumerus 0.928336 -41.6424 90.988
lradius 69.8021
lwrist 53.4877
lhand -50.6708 9.28501
lfingers 7.12502
lthumb -23.2328 37.9036
rfemur 528.208 -175.859 -529.45
rtibia 42.4024
rfoot -19.6223 9.2677
rtoes -23.4068
lfemur 341.494 4.6099 345.533
ltibia 37.0304
lfoot -14.5008 6.48064
ltoes -20.1533
37
root -2.71743 18.9493 11.2269 -177.402 24.3104 181.41
lowerback 4.14287 4.38912 -8.00732
upperback 11.3128 8.30707 -5.25308
thorax 9.6472 4.40917 -0.751646
lowerneck -11.4712 1.89671 6.34735
upperneck -2.4913 2.11816 -3.9904
head 1.3075 1.07895 -2.29252
rclavicle 4.45278e-014 1.59028e-015
rhumerus 16.2605 21.5708 -89.5245
rradius 95.4934
rwrist 35.0774
rhand -46.1774 12.5981
rfingers 7.12502
rthumb -18.9163 -16.5021
lclavicle 4.45278e-014 1.59028e-015
lhumerus 2.16207 -42.1592 90.3468
lradius 70.9976
lwrist 52.202
lhand -50.5171 8.16422
lfingers 7.12502
lthumb -23.0854 36.8013
rfemur 529.479 -175.786 -529.736
rtibia 42.3423
rfoot -19.6461 8.62149
rtoes -22.6384
lfemur 341.668 4.64224 345.476
ltibia 37.1595
lfoot -14.5074 6.49563
ltoes -20.129
38
root -2.71067 18.9336 11.2631 -177.741 24.3902 181.303
lowerback 3.78183 4.41636 -7.84541
upperback 11.2758 8.35325 -5.21946
thorax 9.82411 4.42534 -0.764204
lowerneck -11.421 1.8925 6.29922
upperneck -2.01219 2.09197 -3.84573
head 1.45146 1.05896 -2.23873
rclavicle 8.74653e-015 2.54444e-014
rhumerus 17.4335 21.5573 -89.1115
rradius 95.7723
rwrist 35.1316
rhand -46.6597 13.4015
rfingers 7.12502
rthumb -19.3801 -15.6528
lclavicle 8.74653e-015 2.54444e-014
lhumerus 3.41922 -42.564 89.7141
lradius 72.2422
lwrist 50.8628
lhand -50.4524 7.4871
lfingers 7.12502
lthumb -23.0233 36.132
rfemur 530.755 -175.664 -529.986
rtibia 42.186
rfoot -19.5167 8.23816
rtoes -21.8055
lfemur 341.803 4.67395 345.459
ltibia 37.3447
lfoot -14.5235 6.50874
ltoes -20.065
39
root -2.70317 18.9146 11.2991 -178.094 24.4605 181.176
lowerback 3.42187 4.45315 -7.65424
upperback 11.2321 8.41535 -5.21451
thorax 10.002 4.45511 -0.821932
lowerneck -11.3742 1.873 6.28441
upperneck -1.49126 2.03982 -3.6788
head 1.60904 1.02708 -2.18553
rclavicle -1.27222e-014 6.04305e-014
rhumerus 18.6506 21.4595 -88.7238
rradius 95.9788
rwrist 35.2858
rhand -47.0457 13.9358
rfingers 7.12502
rthumb -19.7512 -15.0807
lclavicle -1.27222e-014 6.04305e-014
lhumerus 4.80204 -42.9548 88.9637
lradius 73.4641
lwrist 49.6153
lhand -50.242 7.03857
lfingers 7.12502
lthumb -22.8213 35.7085
rfemur 532.046 -175.512 -530.254
rtibia 41.9475
rfoot -19.2977 8.08039
rtoes -21.3204
lfemur 341.927 4.68956 345.425
ltibia 37.5635
lfoot -14.5715 6.52548
ltoes -20.0386
40
root -2.69521 18.8956 11.3347 -178.45 24.5137 181.037
lowerback 3.04459 4.47565 -7.48375
upperback 11.1776 8.45043 -5.19122
thorax 10.1733 4.46663 -0.848939
lowerneck -11.2739 1.87975 6.20314
upperneck -0.948836 2.03119 -3.47634
head 1.76514 1.01858 -2.10645
rclavicle 2.38542e-015 -2.70347e-014
rhumerus 19.9047 21.3756 -88.3222
rradius 96.0928
rwrist 35.4919
rhand -47.3949 14.3023
rfingers 7.12502
rthumb -20.0869 -14.6793
lclavicle 2.38542e-015 -2.70347e-014
lhumerus 6.22908 -43.1862 88.2143
lradius 74.6536
lwrist 48.6157
lhand -49.8527 6.27457
lfingers 7.12502
lthumb -22.4477 34.99
rfemur 533.321 -175.373 -530.531
rtibia 41.6518
rfoot -19.0963 8.08799
rtoes -21.0696
lfemur 342.046 4.64802 345.379
ltibia 37.7845
lfoot -14.6105 6.57512
ltoes -20.0249
41
root -2.68691 18.8783 11.3688 -178.834 24.5836 180.862
lowerback 2.67687 4.5283 -7.31679
upperback 11.1165 8.5256 -5.17643
thorax 10.3329 4.49926 -0.882247
lowerneck -11.127 1.84728 6.07465
upperneck -0.402706 1.97751 -3.22205
head 1.91031 0.990321 -2.00416
rclavicle 1.145e-013 -1.97194e-013
rhumerus 21.1835 21.1997 -87.9005
rradius 96.1743
rwrist 35.7433
rhand -47.655 14.4841
rfingers 7.12502
rthumb -20.3369 -14.4711
lclavicle 1.145e-013 -1.97194e-013
lhumerus 7.69663 -43.4005 87.4556
lradius 75.8199
lwrist 47.7828
lhand -49.2912 5.13765
lfingers 7.12502
lthumb -21.9087 33.9172
rfemur 534.513 -175.15 -530.835
rtibia 41.3262
rfoot -19.0593 7.97663
rtoes -22.0254
lfemur 342.2 4.63551 345.296
ltibia 37.9869
lfoot -14.6365 6.61741
ltoes -19.8957
42
root -2.67654 18.8632 11.4016 -179.278 24.6423 180.625
lowerback 2.35994 4.57493 -7.22289
upperback 11.0288 8.58082 -5.16031
thorax 10.4237 4.51708 -0.883082
lowerneck -10.771 1.81235 5.93235
upperneck 0.0258014 1.9354 -3.01125
head 1.98006 0.967843 -1.91285
rclavicle -1.43125e-014 5.40694e-014
rhumerus 22.3956 21.065 -87.4951
rradius 96.2463
rwrist 35.9658
rhand -47.8276 14.5949
rfingers 7.12502
rthumb -20.5027 -14.3425
lclavicle -1.43125e-014 5.40694e-014
lhumerus 9.0973 -43.4473 86.8067
lradius 76.8644
lwrist 46.9261
lhand -48.5546 3.80354
lfingers 7.12502
lthumb -21.2012 32.6642
rfemur 535.66 -174.848 -531.196
rtibia 40.9802
rfoot -19.1366 7.78169
rtoes -24.0747
lfemur 342.412 4.58342 345.15
ltibia 38.1659
lfoot -14.693 6.70115
ltoes -19.8811
43
root -2.66645 18.8457 11.435 -179.755 24.7043 180.328
lowerback 2.05329 4.63115 -7.15542
upperback 10.9391 8.65415 -5.16564
thorax 10.5075 4.54461 -0.892237
lowerneck -10.3805 1.76981 5.79636
upperneck 0.43397 1.88578 -2.80685
head 2.03665 0.942646 -1.82534
rclavicle -5.1684e-014 2.54444e-014
rhumerus 23.5941 20.8802 -87.1171
rradius 96.3117
rwrist 36.1276
rhand -47.915 14.6907
rfingers 7.12502
rthumb -20.5867 -14.2377
lclavicle -5.1684e-014 2.54444e-014
lhumerus 10.52 -43.4748 86.1435
lradius 77.8722
lwrist 45.9657
lhand -47.7563 2.50763
lfingers 7.12502
lthumb -20.4343 31.4524
rfemur 536.796 -174.598 -531.621
rtibia 40.6083
rfoot -19.1883 7.73624
rtoes -25.8403
lfemur 342.636 4.53218 344.948
ltibia 38.3364
lfoot -14.7431 6.76255
ltoes -19.7549
44
root -2.65514 18.8268 11.4678 -180.194 24.7551 180.039
lowerback 1.73089 4.70766 -7.05793
upperback 10.8162 8.74612 -5.17788
thorax 10.5668 4.58291 -0.923322
lowerneck -9.91589 1.6982 5.68523
upperneck 0.828283 1.79906 -2.60343
head 2.0739 0.900059 -1.74463
rclavicle -1.16885e-013 4.6118e-014
rhumerus 24.7176 20.64 -86.7195
rradius 96.3333
rwrist 36.2434
rhand -48.0096 14.7559
rfingers 7.12502
rthumb -20.6776 -14.1626
lclavicle -1.16885e-013 4.6118e-014
lhumerus 11.9616 -43.5202 85.4788
lradius 78.7749
lwrist 44.9526
lhand -46.9316 1.46647
lfingers 7.12502
lthumb -19.6416 30.4942
rfemur 537.863 -174.341 -532.034
rtibia 40.199
rfoot -19.2267 7.77233
rtoes -27.735
lfemur 342.812 4.48784 344.751
ltibia 38.5175
lfoot -14.7615 6.86249
ltoes -19.6704
45
root -2.64369 18.8078 11.5005 -180.612 24.8031 179.782
lowerback 1.43779 4.78365 -6.91217
upperback 10.6631 8.82381 -5.19932
thorax 10.5817 4.61921 -0.995258
lowerneck -9.47972 1.62738 5.61836
upperneck 1.29509 1.70809 -2.43568
head 2.14182 0.855707 -1.68436
rclavicle 7.71285e-014 -6.20208e-014
rhumerus 25.7508 20.421 -86.39
rradius 96.2855
rwrist 36.3613
rhand -48.0742 14.7359
rfingers 7.12502
rthumb -20.7397 -14.1759
lclavicle 7.71285e-014 -6.20208e-014
lhumerus 13.4518 -43.5541 84.7456
lradius 79.6077
lwrist 44.0469
lhand -46.155 0.466149
lfingers 7.12502
lthumb -18.8948 29.5684
rfemur 538.868 -174.073 -532.399
rtibia 39.7313
rfoot -19.2327 7.80088
rtoes -29.7758
lfemur 342.954 4.43318 344.588
ltibia 38.7432
lfoot -14.8331 6.93911
ltoes -19.6232
46
root -2.63213 18.7872 11.5336 -181.017 24.8307 179.54
lowerback 1.17156 4.87174 -6.72141
upperback 10.4801 8.90633 -5.23169
thorax 10.5541 4.66298 -1.10665
lowerneck -8.98606 1.54433 5.58416
upperneck 1.76706 1.60215 -2.26394
head 2.20078 0.805987 -1.6293
rclavicle 1.82882e-014 4.92986e-014
rhumerus 26.7188 20.141 -86.0767
rradius 96.2111
rwrist 36.4282
rhand -48.1153 14.7589
rfingers 7.12502
rthumb -20.7792 -14.1485
lclavicle 1.82882e-014 4.92986e-014
lhumerus 14.9785 -43.606 83.9508
lradius 80.403
lwrist 43.3264
lhand -45.4225 -0.451876
lfingers 7.12502
lthumb -18.1902 28.7176
rfemur 539.839 -173.809 -532.735
rtibia 39.1926
rfoot -19.2223 7.77209
rtoes -31.6641
lfemur 343.059 4.36709 344.439
ltibia 39.0282
lfoot -14.9181 7.01279
ltoes -19.6344
